<?xml version="1.0" encoding="UTF-8"?>
<svg xmlns="http://www.w3.org/2000/svg" version="1.1" width="100" height="100" viewBox="0 0 100 100"><rect x="0" y="0" width="100" height="100" fill="#ffffff"/><g transform="scale(3.03)"><g transform="translate(0,0)"><path fill-rule="evenodd" d="M10 0L10 2L11 2L11 0ZM12 0L12 1L13 1L13 2L12 2L12 4L14 4L14 5L15 5L15 6L14 6L14 7L15 7L15 6L16 6L16 7L17 7L17 5L15 5L15 4L16 4L16 1L15 1L15 0L14 0L14 1L13 1L13 0ZM17 0L17 1L20 1L20 2L19 2L19 3L17 3L17 4L18 4L18 8L15 8L15 9L14 9L14 8L13 8L13 9L12 9L12 7L13 7L13 5L11 5L11 6L10 6L10 4L11 4L11 3L8 3L8 4L9 4L9 5L8 5L8 7L9 7L9 8L6 8L6 9L5 9L5 8L0 8L0 9L1 9L1 10L0 10L0 11L1 11L1 10L2 10L2 9L5 9L5 10L3 10L3 11L4 11L4 13L5 13L5 15L4 15L4 16L5 16L5 17L3 17L3 19L0 19L0 25L1 25L1 20L2 20L2 22L3 22L3 24L2 24L2 25L4 25L4 23L7 23L7 24L5 24L5 25L7 25L7 24L8 24L8 21L9 21L9 20L10 20L10 19L9 19L9 20L6 20L6 19L7 19L7 18L8 18L8 17L9 17L9 16L8 16L8 17L7 17L7 16L5 16L5 15L11 15L11 16L10 16L10 18L11 18L11 17L12 17L12 18L13 18L13 17L14 17L14 18L15 18L15 19L16 19L16 18L15 18L15 17L16 17L16 14L17 14L17 15L18 15L18 16L17 16L17 17L18 17L18 18L21 18L21 17L18 17L18 16L19 16L19 15L18 15L18 14L20 14L20 16L22 16L22 17L23 17L23 18L22 18L22 19L20 19L20 20L19 20L19 19L18 19L18 20L15 20L15 21L14 21L14 20L13 20L13 19L12 19L12 21L14 21L14 24L12 24L12 23L13 23L13 22L11 22L11 21L10 21L10 22L9 22L9 23L10 23L10 22L11 22L11 25L12 25L12 28L13 28L13 29L11 29L11 28L10 28L10 29L9 29L9 28L8 28L8 33L11 33L11 31L9 31L9 30L10 30L10 29L11 29L11 30L13 30L13 31L14 31L14 30L15 30L15 32L17 32L17 33L18 33L18 32L17 32L17 29L18 29L18 28L19 28L19 30L20 30L20 31L21 31L21 32L22 32L22 33L25 33L25 32L22 32L22 30L24 30L24 31L25 31L25 30L26 30L26 32L27 32L27 30L29 30L29 32L28 32L28 33L29 33L29 32L31 32L31 33L32 33L32 32L31 32L31 31L32 31L32 30L31 30L31 29L32 29L32 26L33 26L33 25L32 25L32 26L31 26L31 25L30 25L30 27L29 27L29 24L28 24L28 23L27 23L27 21L30 21L30 22L31 22L31 23L30 23L30 24L33 24L33 23L32 23L32 22L33 22L33 21L32 21L32 18L33 18L33 17L29 17L29 16L33 16L33 15L32 15L32 14L33 14L33 13L32 13L32 12L31 12L31 11L32 11L32 10L33 10L33 9L32 9L32 8L31 8L31 9L32 9L32 10L31 10L31 11L30 11L30 8L29 8L29 12L28 12L28 10L27 10L27 9L28 9L28 8L27 8L27 9L26 9L26 8L25 8L25 5L24 5L24 4L25 4L25 2L24 2L24 3L23 3L23 2L21 2L21 1L24 1L24 0ZM8 1L8 2L9 2L9 1ZM14 1L14 2L13 2L13 3L14 3L14 4L15 4L15 1ZM20 3L20 4L22 4L22 3ZM19 5L19 7L20 7L20 8L18 8L18 9L17 9L17 11L16 11L16 12L15 12L15 10L16 10L16 9L15 9L15 10L14 10L14 9L13 9L13 10L12 10L12 9L11 9L11 8L10 8L10 9L6 9L6 10L5 10L5 11L6 11L6 12L5 12L5 13L6 13L6 14L9 14L9 12L11 12L11 13L10 13L10 14L13 14L13 15L12 15L12 17L13 17L13 16L14 16L14 17L15 17L15 16L14 16L14 15L15 15L15 14L16 14L16 13L17 13L17 12L18 12L18 13L19 13L19 11L21 11L21 10L22 10L22 11L23 11L23 13L22 13L22 12L20 12L20 14L21 14L21 13L22 13L22 15L24 15L24 16L25 16L25 18L23 18L23 19L22 19L22 20L23 20L23 21L22 21L22 24L21 24L21 22L19 22L19 24L18 24L18 21L17 21L17 24L16 24L16 25L15 25L15 24L14 24L14 25L13 25L13 28L14 28L14 29L13 29L13 30L14 30L14 29L15 29L15 30L16 30L16 29L17 29L17 28L18 28L18 27L19 27L19 28L20 28L20 29L21 29L21 30L22 30L22 28L20 28L20 26L18 26L18 27L17 27L17 26L16 26L16 25L17 25L17 24L18 24L18 25L20 25L20 24L21 24L21 25L22 25L22 26L23 26L23 25L24 25L24 24L23 24L23 23L24 23L24 22L26 22L26 21L27 21L27 19L29 19L29 17L27 17L27 16L28 16L28 15L29 15L29 13L30 13L30 14L31 14L31 12L29 12L29 13L28 13L28 15L27 15L27 14L25 14L25 11L26 11L26 13L27 13L27 11L26 11L26 9L25 9L25 8L23 8L23 7L24 7L24 5L23 5L23 7L22 7L22 6L21 6L21 7L20 7L20 5ZM9 6L9 7L10 7L10 6ZM11 6L11 7L12 7L12 6ZM21 7L21 8L22 8L22 9L23 9L23 10L24 10L24 11L25 11L25 10L24 10L24 9L23 9L23 8L22 8L22 7ZM10 9L10 11L11 11L11 9ZM18 9L18 11L19 11L19 10L21 10L21 9ZM6 10L6 11L9 11L9 10ZM13 10L13 11L12 11L12 13L14 13L14 14L15 14L15 13L14 13L14 12L13 12L13 11L14 11L14 10ZM0 12L0 13L1 13L1 12ZM6 12L6 13L7 13L7 12ZM2 13L2 15L1 15L1 16L0 16L0 18L1 18L1 16L2 16L2 15L3 15L3 13ZM23 13L23 14L24 14L24 15L25 15L25 16L27 16L27 15L25 15L25 14L24 14L24 13ZM5 17L5 19L4 19L4 20L3 20L3 22L5 22L5 21L6 21L6 22L7 22L7 21L6 21L6 20L5 20L5 19L6 19L6 18L7 18L7 17ZM26 17L26 18L27 18L27 17ZM24 19L24 21L23 21L23 22L24 22L24 21L26 21L26 20L25 20L25 19ZM4 20L4 21L5 21L5 20ZM20 20L20 21L21 21L21 20ZM30 20L30 21L31 21L31 20ZM15 21L15 22L16 22L16 21ZM22 24L22 25L23 25L23 24ZM8 25L8 27L10 27L10 26L9 26L9 25ZM14 25L14 26L15 26L15 27L16 27L16 26L15 26L15 25ZM25 25L25 28L28 28L28 25ZM26 26L26 27L27 27L27 26ZM15 28L15 29L16 29L16 28ZM23 28L23 29L24 29L24 28ZM29 28L29 29L31 29L31 28ZM26 29L26 30L27 30L27 29ZM13 32L13 33L14 33L14 32ZM0 0L0 7L7 7L7 0ZM1 1L1 6L6 6L6 1ZM2 2L2 5L5 5L5 2ZM26 0L26 7L33 7L33 0ZM27 1L27 6L32 6L32 1ZM28 2L28 5L31 5L31 2ZM0 26L0 33L7 33L7 26ZM1 27L1 32L6 32L6 27ZM2 28L2 31L5 31L5 28Z" fill="#000000"/></g></g></svg>
